<svg width="31" height="31" viewBox="0 0 31 31" fill="none" xmlns="http://www.w3.org/2000/svg">
<path id="Vector" d="M15.5 0.916504C23.5544 0.916504 30.0833 7.44546 30.0833 15.4998C30.0833 23.5542 23.5544 30.0832 15.5 30.0832C7.44561 30.0832 0.916656 23.5542 0.916656 15.4998C0.916656 7.44546 7.44561 0.916504 15.5 0.916504ZM15.5 3.83317C12.4058 3.83317 9.43833 5.06233 7.25041 7.25026C5.06249 9.43818 3.83332 12.4056 3.83332 15.4998C3.83332 18.594 5.06249 21.5615 7.25041 23.7494C9.43833 25.9373 12.4058 27.1665 15.5 27.1665C18.5942 27.1665 21.5616 25.9373 23.7496 23.7494C25.9375 21.5615 27.1667 18.594 27.1667 15.4998C27.1667 12.4056 25.9375 9.43818 23.7496 7.25026C21.5616 5.06233 18.5942 3.83317 15.5 3.83317ZM15.4854 12.5832C16.2992 12.5832 16.9583 13.2423 16.9583 14.0561V21.5286C17.2363 21.6891 17.4536 21.9369 17.5764 22.2335C17.6993 22.53 17.7208 22.8589 17.6377 23.169C17.5546 23.479 17.3716 23.753 17.1169 23.9485C16.8622 24.1439 16.5502 24.2498 16.2292 24.2498H15.5146C15.3211 24.2498 15.1296 24.2117 14.9509 24.1377C14.7722 24.0637 14.6098 23.9552 14.4731 23.8184C14.3363 23.6817 14.2278 23.5193 14.1538 23.3406C14.0798 23.1619 14.0417 22.9703 14.0417 22.7769V15.4998C13.6549 15.4998 13.2839 15.3462 13.0105 15.0727C12.737 14.7992 12.5833 14.4283 12.5833 14.0415C12.5833 13.6547 12.737 13.2838 13.0105 13.0103C13.2839 12.7368 13.6549 12.5832 14.0417 12.5832H15.4854ZM15.5 8.20817C15.8868 8.20817 16.2577 8.36182 16.5312 8.63531C16.8047 8.9088 16.9583 9.27973 16.9583 9.6665C16.9583 10.0533 16.8047 10.4242 16.5312 10.6977C16.2577 10.9712 15.8868 11.1248 15.5 11.1248C15.1132 11.1248 14.7423 10.9712 14.4688 10.6977C14.1953 10.4242 14.0417 10.0533 14.0417 9.6665C14.0417 9.27973 14.1953 8.9088 14.4688 8.63531C14.7423 8.36182 15.1132 8.20817 15.5 8.20817Z" fill="white"/>
</svg>
