<svg width="32" height="28" viewBox="0 0 32 28" fill="none" xmlns="http://www.w3.org/2000/svg">
<path id="Vector" d="M12.5833 0.833496C11.0362 0.833496 9.5525 1.44808 8.45853 2.54204C7.36457 3.636 6.74999 5.11973 6.74999 6.66683C6.74999 8.21393 7.36457 9.69766 8.45853 10.7916C9.5525 11.8856 11.0362 12.5002 12.5833 12.5002C14.1304 12.5002 15.6142 11.8856 16.7081 10.7916C17.8021 9.69766 18.4167 8.21393 18.4167 6.66683C18.4167 5.11973 17.8021 3.636 16.7081 2.54204C15.6142 1.44808 14.1304 0.833496 12.5833 0.833496ZM22.7917 12.5002C22.7025 12.4985 22.6157 12.5283 22.5463 12.5843C22.477 12.6403 22.4296 12.7189 22.4125 12.8064L22.1354 14.7314C21.6979 14.921 21.275 15.1543 20.8958 15.4168L19.0875 14.6877C18.9271 14.6877 18.7375 14.6877 18.6354 14.8772L17.1771 17.4002C17.0896 17.5606 17.1187 17.7502 17.2646 17.8668L18.8104 19.0627C18.7522 19.547 18.7522 20.0366 18.8104 20.521L17.2646 21.7168C17.199 21.773 17.1546 21.8499 17.1387 21.9348C17.1228 22.0196 17.1364 22.1074 17.1771 22.1835L18.6354 24.7064C18.7229 24.896 18.9125 24.896 19.0875 24.896L20.8958 24.1668C21.275 24.4293 21.6833 24.6772 22.1354 24.8522L22.4125 26.7772C22.4417 26.9522 22.5875 27.0835 22.7917 27.0835H25.7083C25.8687 27.0835 26.0292 26.9522 26.0583 26.7772L26.3354 24.8522C26.7729 24.6627 27.1667 24.4293 27.5604 24.1668L29.3542 24.896C29.5437 24.896 29.7333 24.896 29.8354 24.7064L31.2937 22.1835C31.3345 22.1074 31.348 22.0196 31.3321 21.9348C31.3162 21.8499 31.2718 21.773 31.2062 21.7168L29.6458 20.521C29.675 20.2731 29.7042 20.0397 29.7042 19.7918C29.7042 19.5439 29.6896 19.3106 29.6458 19.0627L31.1917 17.8668C31.2572 17.8106 31.3016 17.7337 31.3175 17.6489C31.3334 17.564 31.3199 17.4763 31.2792 17.4002L29.8208 14.8772C29.7333 14.6877 29.5437 14.6877 29.3542 14.6877L27.5604 15.4168C27.1667 15.1543 26.7729 14.9064 26.3208 14.7314L26.0437 12.8064C26.0345 12.7233 25.9954 12.6465 25.9337 12.5901C25.872 12.5337 25.7919 12.5018 25.7083 12.5002H22.7917ZM12.5833 15.4168C6.13749 15.4168 0.916656 18.0272 0.916656 21.2502V24.1668H15.0333C14.3825 22.8001 14.0437 21.3057 14.0417 19.7918C14.0446 18.3267 14.3629 16.8793 14.975 15.5481C14.2021 15.4606 13.4 15.4168 12.5833 15.4168ZM24.25 17.6043C25.4604 17.6043 26.4375 18.5814 26.4375 19.7918C26.4375 21.0022 25.4604 21.9793 24.25 21.9793C23.025 21.9793 22.0625 21.0022 22.0625 19.7918C22.0625 18.5814 23.0396 17.6043 24.25 17.6043Z" fill="white"/>
</svg>
