<svg width="32" height="27" viewBox="0 0 32 27" fill="none" xmlns="http://www.w3.org/2000/svg">
<path id="Vector" d="M26.7246 6.20833H25.1526V4.75C25.1526 3.58968 24.6558 2.47688 23.7714 1.65641C22.887 0.835936 21.6874 0.375 20.4367 0.375H4.71701C3.46627 0.375 2.26676 0.835936 1.38236 1.65641C0.497952 2.47688 0.00109863 3.58968 0.00109863 4.75V22.25C0.00109863 23.4103 0.497952 24.5231 1.38236 25.3436C2.26676 26.1641 3.46627 26.625 4.71701 26.625H26.7246C27.9753 26.625 29.1748 26.1641 30.0592 25.3436C30.9436 24.5231 31.4405 23.4103 31.4405 22.25V10.5833C31.4405 9.42301 30.9436 8.31021 30.0592 7.48974C29.1748 6.66927 27.9753 6.20833 26.7246 6.20833ZM4.71701 3.29167H20.4367C20.8536 3.29167 21.2535 3.44531 21.5483 3.7188C21.8431 3.99229 22.0087 4.36323 22.0087 4.75V6.20833H4.71701C4.3001 6.20833 3.90026 6.05469 3.60546 5.7812C3.31066 5.50771 3.14504 5.13677 3.14504 4.75C3.14504 4.36323 3.31066 3.99229 3.60546 3.7188C3.90026 3.44531 4.3001 3.29167 4.71701 3.29167ZM28.2966 17.875H26.7246C26.3077 17.875 25.9078 17.7214 25.613 17.4479C25.3182 17.1744 25.1526 16.8034 25.1526 16.4167C25.1526 16.0299 25.3182 15.659 25.613 15.3855C25.9078 15.112 26.3077 14.9583 26.7246 14.9583H28.2966V17.875ZM28.2966 12.0417H26.7246C25.4738 12.0417 24.2743 12.5026 23.3899 13.3231C22.5055 14.1435 22.0087 15.2563 22.0087 16.4167C22.0087 17.577 22.5055 18.6898 23.3899 19.5103C24.2743 20.3307 25.4738 20.7917 26.7246 20.7917H28.2966V22.25C28.2966 22.6368 28.1309 23.0077 27.8361 23.2812C27.5413 23.5547 27.1415 23.7083 26.7246 23.7083H4.71701C4.3001 23.7083 3.90026 23.5547 3.60546 23.2812C3.31066 23.0077 3.14504 22.6368 3.14504 22.25V8.87708C3.65006 9.0419 4.18165 9.12574 4.71701 9.125H26.7246C27.1415 9.125 27.5413 9.27865 27.8361 9.55214C28.1309 9.82563 28.2966 10.1966 28.2966 10.5833V12.0417Z" fill="white"/>
</svg>
