<svg width="36" height="26" viewBox="0 0 36 26" fill="none" xmlns="http://www.w3.org/2000/svg">
<path id="Vector" d="M17.6567 0L0.156738 6.91492L17.6567 16.1346L25.9918 11.7434L18.1726 9.22439C18.0115 9.30575 17.8353 9.34819 17.6567 9.3486C17.3387 9.3486 17.0337 9.21549 16.8089 8.97855C16.584 8.74161 16.4577 8.42025 16.4577 8.08517C16.4577 7.75009 16.584 7.42873 16.8089 7.19179C17.0337 6.95485 17.3387 6.82174 17.6567 6.82174L17.4584 7.50099L18.8476 7.95132L18.8482 7.95575L20.8982 8.61628L32.5702 12.4002V13.3593C32.4088 13.475 32.2766 13.6305 32.1852 13.8123C32.0937 13.9941 32.0458 14.1967 32.0456 14.4024C32.0458 14.6129 32.0959 14.8199 32.1914 15.0048C32.2868 15.1897 32.4246 15.3465 32.5921 15.461C32.0463 17.6345 32.0456 22.5659 32.0456 24.5098C33.2447 25.3306 33.2447 25.3606 34.4437 24.5098C34.4437 22.5661 34.4431 17.6357 33.8974 15.4617C34.065 15.3471 34.2028 15.1901 34.2982 15.0051C34.3937 14.8201 34.4437 14.6129 34.4437 14.4023C34.4437 14.1964 34.3959 13.9935 34.3045 13.8115C34.213 13.6294 34.0808 13.4737 33.9191 13.3579V11.3506L29.4733 9.90925L35.1567 6.91492L17.6567 0ZM7.43638 12.5861L6.45291 18.8038C8.41452 19.0741 10.761 20.2755 12.9182 21.696C14.145 22.504 15.294 23.3908 16.2273 24.2513C16.7978 24.7772 17.2748 25.2818 17.6567 25.7783C18.0387 25.2817 18.5157 24.7772 19.0862 24.2513C20.0194 23.3908 21.1684 22.504 22.3953 21.696C24.5524 20.2755 26.899 19.0741 28.8606 18.8038L27.8769 12.5861H27.4086L17.6567 17.7238L7.90476 12.5861H7.43638Z" fill="#05B23F"/>
</svg>
