<svg width="35" height="35" viewBox="0 0 35 35" fill="none" xmlns="http://www.w3.org/2000/svg">
<path d="M15 2.5C21.9037 2.5 27.5 8.09625 27.5 15C27.5 21.9037 21.9037 27.5 15 27.5C8.09625 27.5 2.5 21.9037 2.5 15C2.5 8.09625 8.09625 2.5 15 2.5ZM15 5C12.3478 5 9.8043 6.05357 7.92893 7.92893C6.05357 9.8043 5 12.3478 5 15C5 17.6522 6.05357 20.1957 7.92893 22.0711C9.8043 23.9464 12.3478 25 15 25C17.6522 25 20.1957 23.9464 22.0711 22.0711C23.9464 20.1957 25 17.6522 25 15C25 12.3478 23.9464 9.8043 22.0711 7.92893C20.1957 6.05357 17.6522 5 15 5ZM14.9875 12.5C15.685 12.5 16.25 13.065 16.25 13.7625V20.1675C16.4883 20.3051 16.6745 20.5175 16.7798 20.7717C16.8851 21.0259 16.9036 21.3077 16.8324 21.5735C16.7611 21.8393 16.6042 22.0742 16.3859 22.2417C16.1676 22.4092 15.9002 22.5 15.625 22.5H15.0125C14.8467 22.5 14.6825 22.4673 14.5294 22.4039C14.3762 22.3405 14.237 22.2475 14.1198 22.1302C14.0025 22.013 13.9095 21.8738 13.8461 21.7206C13.7827 21.5675 13.75 21.4033 13.75 21.2375V15C13.4185 15 13.1005 14.8683 12.8661 14.6339C12.6317 14.3995 12.5 14.0815 12.5 13.75C12.5 13.4185 12.6317 13.1005 12.8661 12.8661C13.1005 12.6317 13.4185 12.5 13.75 12.5H14.9875ZM15 8.75C15.3315 8.75 15.6495 8.8817 15.8839 9.11612C16.1183 9.35054 16.25 9.66848 16.25 10C16.25 10.3315 16.1183 10.6495 15.8839 10.8839C15.6495 11.1183 15.3315 11.25 15 11.25C14.6685 11.25 14.3505 11.1183 14.1161 10.8839C13.8817 10.6495 13.75 10.3315 13.75 10C13.75 9.66848 13.8817 9.35054 14.1161 9.11612C14.3505 8.8817 14.6685 8.75 15 8.75Z" fill="white"/>
</svg>
